HIERARCHY
ROOT root
{
	OFFSET 0.000000 0.000000 0.000000
	CHANNELS 6 Xposition Yposition Zposition Zrotation Yrotation Xrotation
	JOINT lhip
	{
		OFFSET 0.058581 -0.082280 -0.017664
		CHANNELS 3 Zrotation Yrotation Xrotation
		JOINT lknee
		{
			OFFSET 0.043451 -0.386469 0.008037
			CHANNELS 3 Zrotation Yrotation Xrotation
			JOINT lankle
			{
				OFFSET -0.014790 -0.426874 -0.037428
				CHANNELS 3 Zrotation Yrotation Xrotation
				JOINT ltoe
				{
					OFFSET 0.041054 -0.060286 0.122042
					CHANNELS 3 Zrotation Yrotation Xrotation
					End Site
					{
						OFFSET 0.000000 0.000000 0.000000
					}
				}
			}
		}
	}
	JOINT rhip
	{
		OFFSET -0.060310 -0.090513 -0.013543
		CHANNELS 3 Zrotation Yrotation Xrotation
		JOINT rknee
		{
			OFFSET -0.043257 -0.383688 -0.004843
			CHANNELS 3 Zrotation Yrotation Xrotation
			JOINT rankle
			{
				OFFSET 0.019056 -0.420046 -0.034562
				CHANNELS 3 Zrotation Yrotation Xrotation
				JOINT rtoe
				{
					OFFSET -0.034840 -0.062106 0.130323
					CHANNELS 3 Zrotation Yrotation Xrotation
					End Site
					{
						OFFSET 0.000000 0.000000 0.000000
					}
				}
			}
		}
	}
	JOINT lowerback
	{
		OFFSET 0.004439 0.124404 -0.038385
		CHANNELS 3 Zrotation Yrotation Xrotation
		JOINT upperback
		{
			OFFSET 0.004488 0.137956 0.026820
			CHANNELS 3 Zrotation Yrotation Xrotation
			JOINT chest
			{
				OFFSET -0.002265 0.056032 0.002855
				CHANNELS 3 Zrotation Yrotation Xrotation
				JOINT lowerneck
				{
					OFFSET -0.013390 0.211636 -0.033468
					CHANNELS 3 Zrotation Yrotation Xrotation
					JOINT upperneck
					{
						OFFSET 0.010113 0.088937 0.050410
						CHANNELS 3 Zrotation Yrotation Xrotation
						End Site
						{
							OFFSET 0.000000 0.000000 0.000000
						}
					}
				}
				JOINT lclavicle
				{
					OFFSET 0.071702 0.114000 -0.018898
					CHANNELS 3 Zrotation Yrotation Xrotation
					JOINT lshoulder
					{
						OFFSET 0.122921 0.045205 -0.019046
						CHANNELS 3 Zrotation Yrotation Xrotation
						JOINT lelbow
						{
							OFFSET 0.255332 -0.015649 -0.022946
							CHANNELS 3 Zrotation Yrotation Xrotation
							JOINT lwrist
							{
								OFFSET 0.265709 0.012698 -0.007375
								CHANNELS 3 Zrotation Yrotation Xrotation
								End Site
								{
									OFFSET 0.000000 0.000000 0.000000
								}
							}
						}
					}
				}
				JOINT rclavicle
				{
					OFFSET -0.082954 0.112472 -0.023707
					CHANNELS 3 Zrotation Yrotation Xrotation
					JOINT rshoulder
					{
						OFFSET -0.113228 0.046853 -0.008472
						CHANNELS 3 Zrotation Yrotation Xrotation
						JOINT relbow
						{
							OFFSET -0.260127 -0.014369 -0.031269
							CHANNELS 3 Zrotation Yrotation Xrotation
							JOINT rwrist
							{
								OFFSET -0.269108 0.006794 -0.006027
								CHANNELS 3 Zrotation Yrotation Xrotation
								End Site
								{
									OFFSET 0.000000 0.000000 0.000000
								}
							}
						}
					}
				}
			}
		}
	}
}
MOTION
Frames: 8
Frame Time: 0.033333
-0.795957 -1.797527 0.982792 161.421087 1.013696 91.602428 10.903063 7.997458 2.309226 -8.884129 -1.952696 2.985751 -0.266162 -5.340297 -8.082349 0.000000 -0.000000 0.000000 0.980421 -4.272681 -0.064263 -0.034451 -3.299967 9.882917 -5.391427 -3.588061 -17.351244 0.000000 -0.000000 0.000000 -4.172072 2.493216 -4.205862 2.571650 -1.802733 12.571707 2.687656 1.105654 -6.179652 -1.947335 7.466261 23.751885 3.279636 13.546615 4.233222 -21.950068 4.115837 9.906419 -71.457567 -2.290150 8.073906 -10.304225 -55.024540 39.590116 5.454247 -2.541141 -8.730989 17.103154 -0.613061 16.047175 69.343979 5.017493 12.583916 141.176942 84.707191 155.722488 0.988852 11.932346 -53.271092 
-0.795532 -1.797414 0.982071 161.410413 1.232781 91.650507 11.138980 7.805998 2.420986 -8.927180 -2.719255 2.740789 -0.466970 -4.373850 -8.328030 0.000000 -0.000000 0.000000 1.355584 -4.036755 -0.454972 -0.068506 -2.217895 10.806328 -5.700604 -3.887351 -17.224933 0.000000 -0.000000 0.000000 -3.737943 2.115597 -3.733655 2.103801 -1.344023 11.692999 3.183363 1.107471 -6.259166 -2.309727 4.246789 24.250917 4.280728 12.715292 4.598605 -21.997062 3.984065 10.758711 -71.651530 -2.481190 6.838039 -9.671571 -55.583279 39.015083 5.164647 -2.560668 -9.172797 16.502673 0.157138 16.773715 69.914676 4.781701 11.352355 139.709476 84.218263 154.910172 1.979001 12.669313 -53.738641 
-0.795069 -1.797297 0.981200 161.427243 1.192826 91.788062 11.041331 7.358490 2.810543 -8.925018 -3.233244 1.827970 0.019489 -3.733149 -8.298696 0.000000 -0.000000 0.000000 1.388826 -3.660589 -1.291583 -0.032758 -1.827669 12.325723 -5.910219 -4.230158 -17.698537 0.000000 -0.000000 0.000000 -3.778320 2.076891 -3.756972 2.152742 -1.072767 11.552420 3.202684 1.072707 -5.873731 -2.293512 3.996251 23.467867 4.287076 12.267780 4.654372 -21.871062 4.168656 10.458502 -71.710465 -2.803838 6.749755 -8.868861 -56.072877 38.055755 5.309035 -2.464100 -9.579409 16.374834 0.146420 16.464944 69.847668 4.842674 11.542658 140.653178 84.072974 156.362920 2.217987 12.855798 -54.057949 
-0.793946 -1.796262 0.979655 161.584057 1.025296 91.928445 10.908726 6.385627 3.799854 -8.963767 -4.327174 -0.068774 0.612567 -2.707250 -8.158343 0.000000 -0.000000 0.000000 1.261367 -2.908197 -2.168571 0.123685 -1.702381 13.995823 -6.101039 -5.019823 -18.534654 0.000000 -0.000000 0.000000 -3.972735 1.995836 -3.763775 2.266075 -0.773082 11.400917 3.087361 1.037149 -4.984049 -1.900030 4.989369 21.853362 3.791335 11.924705 4.594744 -21.515595 4.351849 9.729209 -71.782248 -2.751986 7.600972 -9.115507 -55.983265 38.545495 5.405565 -2.573942 -9.985936 16.467126 -0.100076 15.575246 69.692649 4.929778 12.441279 143.224073 84.125841 159.645709 2.608212 12.862356 -54.465691 
-0.792772 -1.794834 0.978688 161.838222 1.033043 91.911166 11.013277 5.755887 4.662301 -8.941095 -5.163953 -1.457749 0.790368 -2.160936 -8.239083 0.000000 -0.000000 0.000000 1.368820 -2.443122 -2.319895 0.165847 -1.793718 14.601170 -6.192039 -5.723287 -19.134888 0.000000 -0.000000 0.000000 -3.970690 1.874233 -3.675995 2.344652 -0.622226 11.374048 3.027035 1.030582 -4.599906 -1.725838 5.351845 20.912736 3.541678 11.617823 4.656714 -21.330909 4.418131 9.339540 -71.891802 -2.615795 8.152048 -9.505441 -55.845167 39.202072 5.366402 -2.726943 -10.199573 16.462481 -0.192843 15.019214 69.738680 4.787751 12.857636 144.260017 84.238137 160.999167 3.200364 13.265920 -54.881272 
-0.790477 -1.791909 0.977745 162.135238 1.222186 91.811962 11.267381 4.871354 5.238920 -8.917773 -5.670649 -1.795718 1.002568 -1.195361 -8.651794 0.000000 -0.000000 0.000000 1.745890 -1.865660 -2.147000 0.173177 -2.145270 14.967916 -6.064895 -6.815570 -20.058190 0.000000 -0.000000 0.000000 -3.868999 1.807946 -3.630040 2.515470 -0.404926 11.427236 2.932479 1.113765 -4.083856 -1.408496 5.563047 19.746374 3.268449 11.289223 4.685226 -21.098317 4.463281 9.041402 -72.104017 -2.744061 8.490133 -8.502836 -56.139318 38.257177 5.025321 -2.848970 -10.581680 16.448754 -0.313992 14.290115 69.849119 4.333618 13.223030 144.469293 84.283861 161.699244 5.373642 14.923400 -55.725347 
-0.787836 -1.787899 0.976823 162.434986 1.388231 91.914663 11.521125 5.389973 5.211187 -8.845312 -4.998115 -1.233182 0.697675 -2.115353 -9.850321 0.000000 -0.000000 0.000000 2.113491 -1.585526 -1.886727 0.052464 -2.127891 15.043163 -5.956682 -7.247386 -20.740080 0.000000 -0.000000 0.000000 -3.706873 1.778363 -3.775888 2.557652 -0.215120 11.555700 2.890655 1.164795 -3.728696 -1.232093 5.600249 18.620567 3.042195 11.062438 4.661641 -21.112055 4.680345 8.698040 -72.120447 -2.790399 8.301807 -7.524951 -56.473925 37.018561 4.405698 -3.148665 -10.586181 16.575003 -0.429471 13.801802 69.831463 4.022568 13.452605 139.938570 84.398293 157.175167 7.076282 16.311098 -56.028805 
-0.784778 -1.783221 0.975619 162.633871 1.585313 92.260223 11.984635 7.171717 5.459954 -8.491890 -3.807052 -1.385293 0.004923 -5.267150 -10.614130 0.000000 -0.000000 0.000000 2.573970 -1.576763 -1.861069 -0.155657 -1.807145 15.232257 -6.092913 -7.128303 -21.119122 0.000000 -0.000000 0.000000 -3.422505 1.664482 -3.927011 2.468587 0.023659 11.600086 2.832941 1.242948 -3.488922 -1.046416 5.658460 17.600793 2.948974 10.684074 4.378892 -21.095256 4.873977 8.398342 -72.059513 -1.942983 8.473242 -9.677579 -56.181658 39.502876 4.003173 -3.721647 -10.227233 16.705489 -0.438987 13.568436 69.706296 3.923834 13.552929 132.886059 84.553548 149.789639 6.708027 16.312231 -56.395269 
